<?xml version="1.0" standalone="no"?>
<!DOCTYPE svg PUBLIC "-//W3C//DTD SVG 1.1//EN" "http://www.w3.org/Graphics/SVG/1.1/DTD/svg11.dtd" >
<svg xmlns="http://www.w3.org/2000/svg">
<metadata></metadata>
<defs>
<font id="titilliummaps26l250_wt" horiz-adv-x="1085" >
<font-face units-per-em="2048" ascent="1536" descent="-512" />
<missing-glyph horiz-adv-x="481" />
<glyph horiz-adv-x="0" />
<glyph horiz-adv-x="682" />
<glyph unicode=" "  horiz-adv-x="481" />
<glyph unicode="&#x09;" horiz-adv-x="481" />
<glyph unicode="&#xa0;" horiz-adv-x="481" />
<glyph unicode="!" horiz-adv-x="673" d="M272 0v207h136v-207h-136zM274 1432h129l-2 -971h-125z" />
<glyph unicode="&#x22;" horiz-adv-x="612" d="M92 1427h123l-4 -481h-117zM410 1427h122l-4 -481h-114z" />
<glyph unicode="#" d="M20 377v106h234v402h-234v106h234v375h115v-375h342v375h114v-375h234v-106h-234v-402h234v-106h-234v-377h-114v377h-342v-377h-115v377h-234zM369 483h342v402h-342v-402z" />
<glyph unicode="$" d="M119 1024q0 189 114.5 269.5t335.5 80.5q33 0 49 -2l39 246h82l-39 -250q60 -4 127.5 -10.5t105.5 -11.5l38 -5l-6 -114q-154 16 -281 24l-76 -499q78 -16 127.5 -29.5t100 -34t79 -45t52.5 -60.5t33.5 -83.5t9.5 -110.5q0 -214 -109.5 -309.5t-327.5 -95.5q-12 0 -39 1 t-42 1l-35 -232l-82 15l33 223q-61 4 -129.5 10.5t-106.5 11.5l-39 4l10 117q146 -19 283 -29l82 541q-69 15 -115.5 28t-94.5 33.5t-78 47t-54.5 64t-35.5 88t-11 116.5zM250 1026q0 -123 59 -172.5t217 -83.5l76 487h-33q-160 0 -239.5 -51t-79.5 -180zM508 100h63 q154 0 231 68.5t77 218.5q0 51 -11.5 87.5t-30.5 60.5t-58.5 42t-79.5 29t-109 25z" />
<glyph unicode="%" d="M51 1159q0 142 58 210.5t163 68.5q104 0 162 -69t58 -212t-59 -215t-161 -72q-103 0 -162 72t-59 217zM156 1159q0 -100 26.5 -149t89.5 -49t89 48t26 148q0 98 -26 144.5t-89 46.5t-89.5 -46t-26.5 -143zM336 12l346 1434l96 -25l-348 -1431zM629 289q0 278 219 278 q104 0 161.5 -68.5t57.5 -211.5t-58.5 -215t-160.5 -72q-103 0 -161 72t-58 217zM731 289q0 -101 27.5 -150t89.5 -49q63 0 89 48.5t26 148.5q0 98 -26 144t-89 46q-62 0 -89.5 -46t-27.5 -142z" />
<glyph unicode="&#x26;" horiz-adv-x="1433" d="M104 426q0 157 83 255t241 153q-58 65 -82 132t-24 160q0 136 94 220t246 84q168 0 253.5 -83t85.5 -229q0 -143 -74 -227.5t-249 -155.5l330 -327q42 120 61 284l119 -2q-29 -218 -86 -364l266 -258l-78 -86l-248 239q-82 -129 -191 -185t-269 -56q-244 0 -361 115 t-117 331zM229 428q0 -162 89 -248t268 -86q125 0 213 49.5t151 157.5l-442 447q-139 -42 -209 -119.5t-70 -200.5zM444 1116q0 -149 93 -239l63 -64q155 61 216 123.5t61 175.5q0 207 -215 207q-102 0 -160 -56t-58 -147z" />
<glyph unicode="'" horiz-adv-x="204" d="M37 1427h123l-4 -450h-117z" />
<glyph unicode="(" horiz-adv-x="532" d="M88 616q0 115 20.5 252t50 250.5t58.5 210.5t49 152l21 55h129q-8 -22 -21 -60t-46.5 -151t-59.5 -219.5t-47 -244t-21 -245.5q0 -107 20 -236t48.5 -237t57.5 -200.5t49 -145.5l20 -53h-129q-8 19 -21.5 52.5t-48 135.5t-60.5 201t-47.5 233.5t-21.5 249.5z" />
<glyph unicode=")" horiz-adv-x="532" d="M84 -246q8 22 21 60t46.5 151t59.5 219.5t47 244t21 245.5q0 107 -20 236t-48.5 237t-57.5 200.5t-49 145.5l-20 53h129q8 -19 21.5 -52.5t48 -135.5t60.5 -201t47.5 -233.5t21.5 -249.5t-20.5 -252t-50 -250.5t-58.5 -210.5t-49 -152l-21 -55h-129z" />
<glyph unicode="*" d="M236 924l233 170l-231 170l59 82l231 -170l90 270l99 -31l-90 -270h280v-103h-284l88 -270l-97 -29l-88 273l-233 -170z" />
<glyph unicode="+" d="M102 543v123h375v376h131v-376h377v-123h-377v-379h-131v379h-375z" />
<glyph unicode="," horiz-adv-x="348" d="M70 -252l90 455h135l-109 -455h-116z" />
<glyph unicode="-" horiz-adv-x="901" d="M143 496v116h615v-116h-615z" />
<glyph unicode="." horiz-adv-x="507" d="M174 0v207h135v-207h-135z" />
<glyph unicode="/" d="M197 29l569 1417l117 -43l-572 -1417z" />
<glyph unicode="0" d="M63 651q0 169 23 295t63 206.5t101 130.5t131 69.5t160 19.5q92 0 163.5 -20t132.5 -70t100 -131.5t61 -207t22 -294.5q0 -191 -34 -324.5t-100 -207.5t-149 -105.5t-194 -31.5q-89 0 -159 19t-131.5 66t-102.5 122.5t-64 192t-23 271.5zM197 649q0 -132 16 -229 t44 -158.5t72.5 -99t95.5 -52t118 -14.5t118 14.5t95 51.5t72 99.5t43.5 159.5t15.5 230q0 177 -21 295.5t-66.5 186t-107 95t-151.5 27.5q-88 0 -148.5 -27t-106.5 -94t-67.5 -187t-21.5 -298z" />
<glyph unicode="1" d="M160 1069l415 283h121v-1352h-125v1210l-352 -241z" />
<glyph unicode="2" d="M109 0v115l430 438q70 70 111.5 118t80.5 105.5t56.5 113t17.5 116.5q0 132 -78 189.5t-229 57.5q-62 0 -154 -11.5t-154 -23.5l-61 -12l-12 113q225 53 401 53q418 0 418 -356q0 -78 -19 -146.5t-59 -131t-81 -110.5t-105 -112l-398 -397h699v-119h-864z" />
<glyph unicode="3" d="M111 27l16 112q26 -5 68.5 -12t152 -18.5t191.5 -10.5q152 1 229.5 71.5t77.5 205.5q0 76 -22 129t-63.5 82.5t-91 43.5t-114.5 17h-266v115h264q41 0 85 17t83.5 47.5t64.5 80.5t25 109q0 128 -69 183.5t-220 55.5q-80 0 -175 -10.5t-149 -21.5l-55 -11l-14 113 q219 47 397 47q217 0 316.5 -83.5t99.5 -262.5q0 -46 -10 -87t-27.5 -70.5t-36 -52.5t-42 -40t-39.5 -27t-34 -18.5t-20 -9.5q60 -20 99.5 -41.5t75 -59.5t52.5 -97t17 -142q0 -200 -108.5 -300.5t-319.5 -100.5q-89 0 -198.5 11.5t-174.5 23.5z" />
<glyph unicode="4" d="M66 258v102l417 992h138l-410 -977h506v454h127v-454h172v-117h-172v-264h-127v264h-651z" />
<glyph unicode="5" d="M115 37l14 113q240 -50 414 -50q140 0 228.5 89.5t88.5 254.5q0 79 -23 136t-66 89t-95.5 47t-118.5 15q-70 0 -150.5 -23t-125.5 -46l-45 -23l-107 18l41 695h764v-119h-649l-35 -473q19 10 51.5 24.5t117 39t148.5 24.5q95 0 170 -21.5t133 -67.5t89.5 -124.5 t31.5 -185.5q0 -229 -120.5 -347t-323.5 -118q-84 0 -192 13.5t-174 26.5z" />
<glyph unicode="6" d="M82 684q0 153 25 271t69 196t109 128t140 71.5t167 21.5q68 0 157 -10t144 -20l55 -9l-12 -112q-184 34 -344 34q-376 0 -379 -505q23 10 60.5 25t131 40t160.5 25q211 0 327 -102t116 -306q0 -213 -123 -332.5t-338 -119.5q-229 0 -347 182.5t-118 521.5zM211 641 q2 -120 22 -217t59.5 -171.5t104 -115.5t150.5 -41q155 0 242.5 88.5t87.5 247.5q0 148 -85.5 220.5t-234.5 72.5q-70 0 -156.5 -21t-138.5 -42z" />
<glyph unicode="7" d="M119 1233v119h807v-195l-520 -1180l-121 39l510 1153v64h-676z" />
<glyph unicode="8" d="M51 348q0 77 18.5 135.5t56 100.5t78 69t101.5 56q-119 53 -175 124t-56 195q0 171 126 258.5t349 87.5t353 -87.5t130 -260.5q0 -127 -59 -197t-191 -120q63 -22 109 -49t84.5 -66.5t58 -95t19.5 -127.5q0 -391 -504 -391q-106 0 -192.5 19t-157 60t-109.5 114.5 t-39 174.5zM186 362q0 -268 363 -268q85 0 149.5 13.5t115.5 45t77.5 87.5t26.5 135q0 66 -20 113t-61 77.5t-83 47.5t-107 34h-213q-123 -33 -185.5 -98.5t-62.5 -186.5zM209 1016q0 -102 54 -161t171 -97h213q124 35 186 95.5t62 160.5q0 128 -87 185.5t-259 57.5 q-170 0 -255 -56t-85 -185z" />
<glyph unicode="9" d="M86 932q0 204 128 322t327 118q235 0 354 -179.5t119 -524.5q0 -153 -24 -271t-67.5 -196t-108.5 -128t-142.5 -71.5t-173.5 -21.5q-68 0 -157.5 11t-145.5 21l-56 11l17 110q184 -37 342 -37q381 0 387 498q-25 -9 -66 -22t-140 -34.5t-163 -21.5q-201 0 -315.5 105.5 t-114.5 310.5zM217 932q0 -151 80.5 -226t228.5 -75q61 0 151 18.5t150 36.5l60 19q-3 263 -88 407.5t-258 144.5q-144 0 -234 -87t-90 -238z" />
<glyph unicode=":" horiz-adv-x="333" d="M135 0v207h135v-207h-135zM135 676v209h135v-209h-135z" />
<glyph unicode=";" horiz-adv-x="385" d="M59 -248l95 461h137l-121 -461h-111zM143 676v209h136v-209h-136z" />
<glyph unicode="&#x3c;" d="M182 547v127l680 430v-131l-563 -359l563 -374v-136z" />
<glyph unicode="=" d="M123 332v121h840v-121h-840zM123 696v123h840v-123h-840z" />
<glyph unicode="&#x3e;" d="M219 104v136l563 374l-563 359v131l680 -430v-127z" />
<glyph unicode="?" horiz-adv-x="790" d="M33 1397q217 57 332 57q208 0 305.5 -78.5t97.5 -265.5q0 -65 -27.5 -128.5t-68.5 -113t-89.5 -102.5t-89.5 -96.5t-68.5 -94.5t-27.5 -98v-78h-125q-4 85 -4 95q0 66 38 134.5t92 126t108.5 113.5t92.5 117t38 117q0 128 -63.5 178.5t-217.5 50.5q-44 0 -120.5 -11.5 t-131.5 -23.5l-55 -12zM266 2v203h135v-203h-135z" />
<glyph unicode="@" horiz-adv-x="2017" d="M113 535q0 253 59 434.5t177.5 293t286.5 163t396 51.5q458 0 665.5 -207.5t207.5 -644.5v-35q0 -118 -9 -209.5t-23.5 -155.5t-39.5 -109t-51.5 -71.5t-66 -41t-75.5 -19t-86 -4.5q-99 0 -149.5 22t-79.5 96q-220 -116 -371 -116q-38 0 -69.5 4t-69.5 17t-67.5 35 t-58.5 61t-48 92t-31 131.5t-12 175.5q0 136 19.5 232t66.5 168.5t129.5 108t204.5 35.5q45 0 108 -13t104 -27l40 -13v35h121v-410q0 -131 2 -213.5t10.5 -144.5t17 -92t30.5 -47.5t42.5 -21t60.5 -3.5q34 0 56.5 3t48.5 14t42 31.5t32.5 56.5t25 89t14 129t5.5 175v37 q0 196 -40.5 332.5t-130 227.5t-230.5 133t-345 42q-205 0 -351 -44.5t-246.5 -143t-148.5 -256.5t-48 -383q0 -191 30.5 -330.5t90.5 -236.5t157 -155.5t222 -84t294 -25.5q36 0 109.5 5.5t128.5 10.5l55 5l6 -117q-201 -21 -299 -21q-156 0 -279 19t-228.5 62.5t-180 116 t-127.5 177t-78.5 247.5t-25.5 327zM721 492q0 -85 10 -150.5t28.5 -107.5t40 -70t50 -42t53.5 -19t55 -5q140 0 332 101q-20 107 -20 385v297q-136 47 -236 47q-76 0 -130.5 -18t-90 -51t-56 -88.5t-28.5 -121t-8 -157.5z" />
<glyph unicode="A" horiz-adv-x="1236" d="M74 0l409 1427h277l405 -1427h-127l-120 391h-603l-114 -391h-127zM346 508h545l-229 807h-87z" />
<glyph unicode="B" horiz-adv-x="1271" d="M205 0v1427h483q200 0 309 -90t109 -260q0 -263 -186 -342q235 -76 235 -334q0 -107 -31.5 -185t-90.5 -125t-137 -69t-177 -22h-514zM330 115h385q144 0 227.5 71.5t83.5 219.5q0 66 -24.5 116t-59.5 77t-82.5 44t-84 22t-73.5 5h-372v-555zM330 782h372q137 0 206 75.5 t69 207.5q0 121 -74 184.5t-219 63.5h-354v-531z" />
<glyph unicode="C" horiz-adv-x="1095" d="M119 709q0 102 6 184t21 160.5t40 137t63.5 108.5t91 82t124 49.5t160.5 17.5q82 0 176 -10t147 -20l53 -11l-8 -115q-211 37 -358 37q-100 0 -170 -29t-111.5 -77.5t-65 -131t-31 -169.5t-7.5 -213q0 -103 5.5 -177.5t20 -148t41.5 -122t69 -87t105 -56.5t146 -18 q57 0 146 9t149 17l61 9l6 -115q-216 -40 -374 -40q-103 0 -182.5 22t-134.5 67.5t-92.5 106t-58.5 145.5t-29.5 177t-8.5 211z" />
<glyph unicode="D" horiz-adv-x="1323" d="M205 0v1427h497q81 0 149 -19t119.5 -53t91.5 -83t67 -107.5t44.5 -129t25 -144.5t7.5 -156q0 -118 -14.5 -221t-51 -199.5t-92.5 -164.5t-144.5 -109t-201.5 -41h-497zM330 117h372q85 0 151 37t107 97t67.5 143t37 166t10.5 175q0 91 -10.5 170.5t-37 155.5t-67.5 130 t-107 87t-151 33h-372v-1194z" />
<glyph unicode="E" horiz-adv-x="1161" d="M205 0v1427h831v-116h-706v-527h583v-114h-583v-553h706v-117h-831z" />
<glyph unicode="F" horiz-adv-x="1140" d="M205 0v1427h833v-116h-708v-592h585v-115h-585v-604h-125z" />
<glyph unicode="G" horiz-adv-x="1251" d="M123 711q0 141 14 249t50.5 202.5t96 155.5t153 95.5t218.5 34.5q93 0 205 -13t178 -25l66 -13l-6 -115q-250 47 -432 47q-101 0 -174.5 -28.5t-119 -78t-72.5 -130t-36.5 -170t-9.5 -211.5t10 -211t36.5 -168.5t72 -128.5t118.5 -77t173 -28q55 0 131 8t129.5 16.5 t54.5 8.5v481h-254v113h379v-698q-285 -47 -447 -47q-124 0 -217 34t-153 94.5t-97 154t-52 201.5t-15 247z" />
<glyph unicode="H" horiz-adv-x="1409" d="M205 0v1427h125v-649h749v649h125v-1427h-125v659h-749v-659h-125z" />
<glyph unicode="I" horiz-adv-x="489" d="M182 0v1427h125v-1427h-125z" />
<glyph unicode="J" horiz-adv-x="626" d="M80 -33q75 0 118 9.5t71.5 40t38 81t9.5 138.5v1194h125l2 -1211q0 -80 -7 -136.5t-25.5 -98t-44 -66.5t-69 -40t-93.5 -20t-125 -5v114z" />
<glyph unicode="K" horiz-adv-x="1218" d="M205 0v1427h125v-669l223 4l395 665h148l-430 -714l456 -713h-151l-414 645l-227 -4v-641h-125z" />
<glyph unicode="L" horiz-adv-x="1062" d="M205 0v1427h125v-1308h631v-119h-756z" />
<glyph unicode="M" horiz-adv-x="1740" d="M205 0v1427h231l434 -1249l439 1249h227v-1427h-125v1292h-29l-440 -1245h-147l-437 1245h-28v-1292h-125z" />
<glyph unicode="N" horiz-adv-x="1413" d="M205 0v1427h246l585 -1302h47v1302h127v-1427h-243l-592 1303h-45v-1303h-125z" />
<glyph unicode="O" horiz-adv-x="1337" d="M123 707q0 376 126 558.5t419 182.5q150 0 255 -46.5t169 -142t93 -230.5t29 -322q0 -194 -28 -328t-92.5 -225t-169 -132.5t-256.5 -41.5q-151 0 -256 44t-169 137t-92 225.5t-28 320.5zM254 707q0 -325 91 -468t323 -143q235 0 325 139t90 472q0 322 -94 473t-321 151 q-228 0 -321 -150t-93 -474z" />
<glyph unicode="P" horiz-adv-x="1247" d="M205 0v1427h497q443 0 443 -446q0 -224 -112 -354.5t-331 -130.5h-372v-496h-125zM330 612h372q158 0 236 101t78 268q0 330 -314 330h-372v-699z" />
<glyph unicode="Q" horiz-adv-x="1337" d="M123 707q0 143 15 252.5t52.5 204t99 155.5t156.5 95t222 34q128 0 223 -34t156.5 -94.5t99 -155t52.5 -204t15 -253.5q0 -263 -51 -425.5t-180 -234.5l160 -283l-117 -57l-166 295q-86 -22 -192 -22q-129 0 -224 32.5t-156.5 90.5t-98.5 150.5t-51.5 201t-14.5 252.5z M254 707q0 -124 10 -213.5t36.5 -168.5t72.5 -127t119.5 -75t175.5 -27q104 0 177.5 26t119.5 72t72.5 125t36 169t9.5 219q0 123 -10 213.5t-37.5 171.5t-73.5 131t-119.5 79t-174.5 29t-175 -28.5t-119.5 -78.5t-72.5 -131t-37 -171.5t-10 -214.5z" />
<glyph unicode="R" horiz-adv-x="1280" d="M205 0v1427h497q443 0 443 -423q0 -345 -273 -416l291 -588h-139l-279 563l-49 -2h-366v-561h-125zM330 676h375q84 0 145.5 25t97 71t52 103.5t16.5 128.5q0 149 -79.5 228t-234.5 79h-372v-635z" />
<glyph unicode="S" horiz-adv-x="1093" d="M115 1079q0 185 114 279t328 94q75 0 176.5 -10t165.5 -20l64 -9l-9 -113q-274 33 -393 33q-155 0 -237 -64.5t-82 -187.5q0 -59 13.5 -101t37.5 -72t69.5 -52.5t98 -37.5t133.5 -32q109 -24 179 -50t123 -68.5t76 -103.5t23 -150q0 -223 -107 -326.5t-333 -103.5 q-73 0 -180 8.5t-177 17.5l-71 8l10 115q271 -33 412 -33q160 0 239.5 75t79.5 231q0 120 -71.5 176t-255.5 92q-117 25 -190 52t-130 72.5t-81.5 113.5t-24.5 167z" />
<glyph unicode="T" horiz-adv-x="1013" d="M18 1309v118h975v-118h-422v-1309h-125v1309h-428z" />
<glyph unicode="U" horiz-adv-x="1316" d="M176 418v1009h125v-1009q0 -161 90 -239.5t260 -78.5q365 0 365 318v1009h125v-1009q0 -222 -123 -329t-367 -107q-475 0 -475 436z" />
<glyph unicode="V" horiz-adv-x="1202" d="M74 1427h129l348 -1312h106l342 1312h129l-372 -1427h-303z" />
<glyph unicode="W" horiz-adv-x="1820" d="M92 1427h127l270 -1312h66l285 1292h141l291 -1292h67l263 1312h127l-291 -1427h-258l-271 1241l-260 -1241h-258z" />
<glyph unicode="X" horiz-adv-x="1189" d="M80 0l434 709l-434 718h143l373 -626l371 626h143l-428 -718l428 -709h-143l-369 618l-375 -618h-143z" />
<glyph unicode="Y" horiz-adv-x="1122" d="M53 1427h142l368 -677l363 677h141l-442 -815v-612h-125v612z" />
<glyph unicode="Z" horiz-adv-x="1167" d="M133 -2v172l756 1096v45h-756v116h901v-172l-755 -1097v-41h755v-119h-901z" />
<glyph unicode="[" horiz-adv-x="614" d="M88 -252v1786h410v-117h-285v-1552h285v-117h-410z" />
<glyph unicode="\" horiz-adv-x="1083" d="M164 1415l127 21l618 -1416l-125 -20z" />
<glyph unicode="]" horiz-adv-x="614" d="M90 -135h285v1552h-285v117h410v-1786h-410v117z" />
<glyph unicode="^" d="M115 672l354 680h129l371 -680h-135l-299 557l-287 -557h-133z" />
<glyph unicode="_" d="M55 -172h975v-115h-975v115z" />
<glyph unicode="`" horiz-adv-x="1116" d="M276 1409l48 113l426 -195l-43 -100z" />
<glyph unicode="a" horiz-adv-x="1064" d="M123 289q0 272 305 303l322 31v94q0 110 -48 160.5t-145 50.5q-71 0 -165.5 -7t-153.5 -15l-58 -7l-6 107q227 36 387 36q159 0 235 -79.5t76 -247.5v-535q17 -44 49.5 -65t86.5 -27l-9 -106q-150 0 -225 81q-19 -9 -53.5 -23t-131 -37t-183.5 -23q-124 0 -203.5 85.5 t-79.5 223.5zM248 291q0 -87 48 -146t122 -59q77 0 160 17.5t128 34.5l44 18v366l-308 -26q-98 -9 -146 -63.5t-48 -141.5z" />
<glyph unicode="b" horiz-adv-x="1105" d="M207 0v1479h123v-504q16 8 43.5 19t107 29.5t150.5 18.5q100 0 171.5 -36t112.5 -105.5t59.5 -160t18.5 -210.5q0 -134 -22.5 -230.5t-75.5 -171t-147 -111.5t-230 -37q-57 0 -135 5t-127 10zM330 98q125 -10 186 -10q88 0 152 23t101.5 60.5t59.5 97t29.5 119.5t7.5 140 q0 92 -11 161t-37 126t-75 87t-120 30t-144.5 -15.5t-110.5 -30.5l-38 -16v-772z" />
<glyph unicode="c" horiz-adv-x="894" d="M127 530q0 268 99 390t323 122q44 0 106 -5.5t102 -10.5l40 -6l-6 -109q-146 21 -224 21q-174 0 -243.5 -94.5t-69.5 -307.5q0 -94 8 -160t28 -121.5t55.5 -88.5t90.5 -50.5t133 -17.5q35 0 91.5 4t95.5 8l39 5l4 -107q-156 -22 -252 -22q-123 0 -204 31t-129 101 t-67.5 169.5t-19.5 248.5z" />
<glyph unicode="d" horiz-adv-x="1105" d="M127 504q0 269 102 403.5t324 134.5q90 0 238 -24v461h122v-1479h-122v66q-18 -10 -48 -24t-110.5 -38t-147.5 -24q-358 0 -358 524zM252 500q0 -410 244 -410q60 0 134 20.5t118 41.5l43 20v741q-137 21 -232 21q-164 0 -235.5 -108.5t-71.5 -325.5z" />
<glyph unicode="e" horiz-adv-x="1038" d="M119 508q0 271 109 402.5t304 131.5q394 0 394 -483l-4 -98h-678q1 -82 14.5 -146t44 -116.5t85.5 -80.5t132 -28q64 0 155.5 5t150.5 9l59 5l4 -101q-211 -28 -375 -28q-108 0 -185.5 36.5t-123 107.5t-66 165t-20.5 219zM244 561h559q0 198 -67 286.5t-204 88.5 q-134 0 -211 -91.5t-77 -283.5z" />
<glyph unicode="f" horiz-adv-x="679" d="M66 915v109h131v104q0 203 62 287t206 84q32 0 77.5 -3t75.5 -6l29 -3v-105q-105 7 -164 7q-92 0 -129 -59t-37 -204v-102h310v-109h-310v-915h-120v915h-131z" />
<glyph unicode="g" horiz-adv-x="1048" d="M111 -170q0 81 42 138.5t126 121.5q-54 34 -54 137q0 16 17 57t34 74l17 33q-168 84 -168 305q0 162 100 255t260 93q44 0 90.5 -6.5t70.5 -13.5l24 -6l313 6v-109h-207q80 -76 80 -219q0 -342 -377 -342q-46 0 -96 8q-39 -99 -39 -126q0 -30 4 -45t15.5 -28t40.5 -18 t70 -7.5t114 -2.5q106 0 174.5 -11.5t118.5 -42.5t72 -86.5t22 -141.5q0 -170 -117 -256t-328 -86q-214 0 -316.5 73.5t-102.5 245.5zM233 -162q0 -117 73.5 -168t225.5 -51q154 0 235 58.5t81 170.5q0 47 -10.5 79.5t-29.5 52.5t-54 31t-74.5 14.5t-99.5 3.5l-218 8 q-71 -59 -100 -98.5t-29 -100.5zM248 696q0 -237 231 -237q125 0 188.5 57.5t63.5 179.5q0 242 -248 242q-113 0 -174 -63.5t-61 -178.5z" />
<glyph unicode="h" horiz-adv-x="1157" d="M193 0v1479h120v-508q19 8 52 20t116 31.5t146 19.5q103 0 169.5 -28t104 -93t52 -156t14.5 -233v-532h-123v530q0 90 -5 150t-19 111.5t-40 80t-67 44.5t-101 16q-61 0 -135.5 -17.5t-118.5 -34.5l-45 -18v-862h-120z" />
<glyph unicode="i" horiz-adv-x="466" d="M172 0v1024h123v-1024h-123zM172 1276v154h123v-154h-123z" />
<glyph unicode="j" horiz-adv-x="495" d="M-49 -358q109 64 159.5 110.5t70.5 104t20 155.5v1012h123v-1014q0 -127 -27.5 -203.5t-92.5 -135.5t-200 -134zM201 1274v153h123v-153h-123z" />
<glyph unicode="k" horiz-adv-x="1007" d="M207 0v1479h123v-873l155 4l324 414h141l-356 -469l358 -555h-139l-326 492l-157 -7v-485h-123z" />
<glyph unicode="l" horiz-adv-x="483" d="M180 0v1479h123v-1479h-123z" />
<glyph unicode="m" horiz-adv-x="1777" d="M223 0v1024h121v-74q18 10 48 25.5t108 41t139 25.5q98 0 155.5 -25t102.5 -77q24 11 64 28t137 45.5t164 28.5q103 0 169 -27.5t104 -92t52.5 -156t14.5 -234.5v-532h-123v526q0 92 -5 152.5t-19 112.5t-39.5 81t-67 44.5t-101.5 15.5q-62 0 -138 -22t-121 -44l-46 -22 q39 -100 39 -312v-532h-123v528q0 222 -49.5 313t-183.5 91q-62 0 -132 -22t-109 -44l-40 -22v-844h-121z" />
<glyph unicode="n" horiz-adv-x="1167" d="M207 0v1024h123v-74q18 10 48 25.5t113 41t152 25.5q103 0 169.5 -28t104 -93t52 -156t14.5 -233v-532h-123v530q0 90 -5 149.5t-19 111.5t-40 80.5t-66.5 44.5t-100.5 16q-68 0 -143 -21.5t-116 -42.5l-40 -22v-846h-123z" />
<glyph unicode="o" horiz-adv-x="1079" d="M121 528q0 265 95.5 389.5t326.5 124.5q218 0 316.5 -128t98.5 -388q0 -108 -11.5 -190t-40 -151t-75.5 -113t-119 -68t-169 -24q-123 0 -205 33t-130 104t-67.5 169.5t-19.5 241.5zM246 528q0 -93 7 -158.5t26 -121.5t52 -89.5t85.5 -52t126.5 -18.5q73 0 125 20.5 t83.5 54.5t49.5 92t24 120t6 151q0 209 -67 308.5t-221 99.5q-164 0 -230.5 -94t-66.5 -312z" />
<glyph unicode="p" horiz-adv-x="1107" d="M207 -461v1485h123v-74q16 10 44 25.5t108 41t153 25.5q360 0 360 -518q0 -283 -103 -413.5t-335 -130.5q-131 0 -227 22v-463h-123zM330 111q126 -23 221 -23q174 0 246.5 105.5t72.5 334.5q0 194 -63.5 299t-183.5 105q-67 0 -140 -22t-113 -44l-40 -22v-733z" />
<glyph unicode="q" horiz-adv-x="1103" d="M127 494q0 282 108 415t355 133q46 0 127 -4.5t139 -9.5l57 -4v-1485h-122v506q-14 -7 -39 -18t-98.5 -29t-141.5 -18q-106 0 -181.5 35t-119.5 103.5t-64 160t-20 215.5zM254 498q0 -198 59.5 -303t202.5 -105q68 0 137 16.5t103 33.5l35 16v766q-133 12 -199 12 q-188 0 -263 -105t-75 -331z" />
<glyph unicode="r" horiz-adv-x="727" d="M188 0v1024h123v-145q7 5 19 13.5t51 32t79 44t97.5 42.5t112.5 33v-124q-81 -17 -170.5 -55.5t-139.5 -68.5l-49 -30v-766h-123z" />
<glyph unicode="s" horiz-adv-x="995" d="M127 754q0 78 29.5 136t81 90t111 47t128.5 15t157.5 -8t142.5 -16l54 -8l-4 -107q-215 31 -344 31q-231 0 -231 -176q0 -51 20.5 -81.5t75.5 -52t160 -38.5q84 -14 139 -28t100 -35.5t69.5 -52t37 -72.5t12.5 -101q0 -171 -99 -244t-286 -73q-56 0 -142 9t-144 18l-58 9 l8 107q222 -35 326 -35q140 0 205 44t65 159q0 87 -51.5 120.5t-218.5 61.5q-94 17 -153 35.5t-105 49.5t-66 78.5t-20 117.5z" />
<glyph unicode="t" horiz-adv-x="749" d="M63 913v109h150v324h123v-324h323v-109h-323v-501q0 -187 31 -254.5t131 -67.5l172 10l8 -104q-119 -19 -191 -19q-149 0 -211.5 83.5t-62.5 287.5v565h-150z" />
<glyph unicode="u" horiz-adv-x="1142" d="M190 489v535h123v-530q0 -94 5.5 -155.5t19.5 -112.5t40.5 -79t67 -42.5t99.5 -14.5q62 0 132.5 21.5t110.5 42.5l39 22v848h123v-1024h-123v72q-18 -10 -47.5 -25.5t-108 -41t-141.5 -25.5q-82 0 -140 18t-97 54t-61.5 99t-32 143t-9.5 195z" />
<glyph unicode="v" horiz-adv-x="985" d="M68 1024h129l258 -920h73l265 920h125l-295 -1024h-263z" />
<glyph unicode="w" horiz-adv-x="1552" d="M70 1024h125l221 -913h47l248 893h131l248 -893h47l221 913h125l-252 -1024h-232l-225 844l-227 -844h-228z" />
<glyph unicode="x" horiz-adv-x="940" d="M72 1024h135l262 -422l264 422h133l-323 -512l323 -512h-137l-260 422l-260 -422h-135l321 512z" />
<glyph unicode="y" horiz-adv-x="985" d="M66 1024h124l265 -909h73l267 909h125l-437 -1485h-125l140 461h-138z" />
<glyph unicode="z" horiz-adv-x="983" d="M121 111l598 802h-598v111h739l2 -111l-596 -802h596v-111h-737z" />
<glyph unicode="{" horiz-adv-x="610" d="M12 584v106q116 29 161.5 82t45.5 148q0 26 -7 124t-7 138q0 186 88.5 269t292.5 91l4 -117q-149 -7 -202.5 -64.5t-53.5 -184.5q0 -35 7 -127.5t7 -120.5q0 -129 -45 -190t-160 -99q114 -37 159.5 -101t45.5 -190q0 -38 -7 -119t-7 -120q0 -125 54 -185t202 -67l-4 -117 q-203 7 -292 91.5t-89 268.5q0 44 7 137t7 115q0 93 -46 146t-161 86z" />
<glyph unicode="|" d="M469 -512v2048h125v-2048h-125z" />
<glyph unicode="}" horiz-adv-x="610" d="M4 -150q149 7 202.5 65t53.5 185q0 35 -7 127.5t-7 120.5q0 129 45 190t160 99q-114 37 -159.5 101t-45.5 190q0 38 7 119t7 120q0 125 -54 185t-202 67l4 117q203 -7 292 -91.5t89 -268.5q0 -44 -7 -137t-7 -115q0 -93 46 -146t161 -86v-106q-116 -29 -161.5 -82 t-45.5 -148q0 -26 7 -124t7 -138q0 -186 -88.5 -269t-292.5 -91z" />
<glyph unicode="~" d="M133 662q5 4 13 11.5t33.5 26t51 33t60 26t65.5 11.5q65 0 203 -52t180 -52q35 0 84 25t81 50l32 25l14 -121q-4 -4 -12 -11.5t-32 -25.5t-48.5 -32t-57.5 -25.5t-63 -11.5q-64 0 -202.5 53t-182.5 53q-36 0 -86.5 -25.5t-83.5 -51.5l-32 -25z" />
<glyph unicode="&#xa1;" horiz-adv-x="673" d="M272 815v207h136v-207h-136zM276 -410l3 971h124l3 -971h-130z" />
<glyph unicode="&#xa2;" horiz-adv-x="894" d="M96 508q0 221 92 326.5t269 113.5v252h110v-256q40 -2 94.5 -7t89.5 -9l35 -4l-6 -113q-194 16 -272 16q-156 0 -218.5 -71.5t-62.5 -247.5q0 -180 61.5 -244.5t235.5 -64.5q35 0 100 3.5t112 7.5l48 3l4 -113q-133 -16 -219 -20v-250h-110v248q-97 4 -162 25.5 t-112 70.5t-68 130.5t-21 203.5z" />
<glyph unicode="&#xa3;" d="M111 0v115h204v624h-163v113h163v115q0 168 31.5 261.5t92.5 129t167 35.5q40 0 115 -7.5t131 -15.5l55 -8l-4 -107q-215 21 -278 21q-74 0 -112.5 -24t-57.5 -90.5t-19 -194.5v-115h451v-113h-451v-624h342l160 32l23 -110l-166 -35q-105 0 -342 -1t-342 -1z" />
<glyph unicode="&#xa4;" horiz-adv-x="1083" d="M102 164l146 141q-67 94 -67.5 210t65.5 210l-144 143l88 88l142 -145q94 66 210 66t210 -66l143 145l88 -88l-145 -143q66 -94 66 -210t-66 -210l145 -141l-88 -88l-143 143q-94 -66 -210 -65.5t-210 67.5l-142 -145zM300 516q0 -102 69 -174q72 -69 173.5 -69t172.5 69 q71 72 71 174t-71 172t-172.5 70t-173.5 -70q-69 -70 -69 -172z" />
<glyph unicode="&#xa5;" horiz-adv-x="1105" d="M35 1352h141l379 -598l373 598h143l-371 -590h308v-111h-369l-21 -35v-161h392v-109h-392v-346h-126v346h-394v109h394v161l-21 35h-375v111h314z" />
<glyph unicode="&#xa6;" d="M467 358h125v-870h-125v870zM467 688v848h125v-848h-125z" />
<glyph unicode="&#xa7;" d="M147 543q0 82 45 158t72 96q-46 35 -68 88t-22 141q0 157 98.5 235t280.5 78q59 0 141.5 -7.5t135.5 -15.5l53 -7l-6 -105q-220 27 -318 27q-134 0 -199 -48.5t-65 -152.5q0 -48 12.5 -81.5t32.5 -55.5t61 -38.5t81.5 -26t109.5 -21.5q89 -16 144.5 -34t101.5 -50.5 t66 -83t20 -125.5q0 -55 -20 -119t-37 -97t-29 -50q75 -60 75 -199q0 -336 -376 -336q-57 0 -146 8.5t-149 16.5l-60 8l13 104q222 -30 335 -30q265 0 265 223q0 36 -7 63t-26.5 47t-38.5 32.5t-59.5 23.5t-72.5 17t-93 16q-92 16 -152.5 36t-108 53.5t-69 85.5t-21.5 126z M270 559q0 -97 59 -140.5t199 -66.5q150 -23 217 -55q5 8 16.5 33t25.5 75.5t14 94.5q0 43 -11.5 74t-30 51t-53 35t-69 23.5t-90.5 18.5q-146 26 -199 50l-3 -4q-3 -5 -6.5 -10t-9 -13.5t-10.5 -17t-11.5 -20.5t-11.5 -23t-10 -24.5t-8.5 -26.5t-5.5 -27t-2 -27z" />
<glyph unicode="&#xa8;" horiz-adv-x="1556" d="M207 1290v162h119v-162h-119zM608 1290v162h119v-162h-119z" />
<glyph unicode="&#xa9;" d="M20 889q0 149 67.5 274t188 198t267.5 73q148 0 268.5 -73t188 -198t67.5 -274t-67.5 -273.5t-188 -197t-268.5 -72.5t-268 72.5t-187.5 197t-67.5 273.5zM86 889q0 -200 130.5 -338.5t326.5 -138.5t327 138.5t131 338.5t-131 339.5t-327 139.5t-326.5 -139.5 t-130.5 -339.5zM319 887q0 59 5.5 104.5t20.5 86.5t39.5 67t64.5 41.5t94 15.5q35 0 72.5 -3.5t58.5 -6.5l20 -4l-2 -66q-83 15 -149 15q-42 0 -71 -11.5t-46 -30.5t-26.5 -52.5t-12 -68t-2.5 -87.5q0 -127 32.5 -186.5t125.5 -59.5q25 0 62.5 4t62.5 8l24 4l2 -65 q-88 -17 -151 -17q-66 0 -111 22t-69 65t-34 97t-10 128z" />
<glyph unicode="&#xaa;" d="M258 952q0 78 41 119t127 47l192 12v39q0 53 -21 76t-71 23q-31 0 -88 -4t-98 -8l-41 -3l-4 84q164 19 240 19q176 0 176 -189v-260q6 -24 20.5 -35.5t46.5 -15.5l-6 -80q-81 3 -123 43q-125 -43 -231 -43q-74 0 -117 46.5t-43 129.5zM352 950q0 -88 76 -88q36 0 83.5 8 t76.5 16l30 7v160l-180 -11q-46 -3 -66 -24.5t-20 -67.5z" />
<glyph unicode="&#xab;" horiz-adv-x="1046" d="M102 459v104l371 283v-129l-264 -203l264 -223v-131zM553 459v104l371 283v-129l-262 -203l262 -223v-131z" />
<glyph unicode="&#xac;" d="M131 580v118h827v-456h-120v338h-707z" />
<glyph unicode="&#xad;" horiz-adv-x="901" d="M143 496v116h615v-116h-615z" />
<glyph unicode="&#xae;" d="M20 889q0 149 67.5 274t188 198t267.5 73q148 0 268.5 -73t188 -198t67.5 -274t-67.5 -273.5t-188 -197t-268.5 -72.5t-268 72.5t-187.5 197t-67.5 273.5zM86 889q0 -200 130.5 -338.5t326.5 -138.5t327 138.5t131 338.5t-131 339.5t-327 139.5t-326.5 -139.5 t-130.5 -339.5zM334 565v645h186q130 0 183 -41.5t53 -142.5q0 -155 -121 -186l133 -275h-72l-135 269h-162v-269h-65zM399 899h164q69 0 98 27.5t29 99.5q0 67 -39 93t-125 26h-127v-246z" />
<glyph unicode="&#xaf;" horiz-adv-x="933" d="M176 1305v108h578v-108h-578z" />
<glyph unicode="&#xb0;" d="M213 1155q0 127 79.5 206t207.5 79q127 0 205.5 -78.5t78.5 -206.5t-78.5 -206.5t-205.5 -78.5q-128 0 -207.5 79t-79.5 206zM305 1155q0 -89 53 -143t142 -54t143.5 54t54.5 143t-54.5 144t-143.5 55t-142 -54.5t-53 -144.5z" />
<glyph unicode="&#xb1;" d="M100 100v123h885v-123h-885zM100 584v123h377v309h131v-309h377v-123h-377v-283h-131v283h-377z" />
<glyph unicode="&#xb2;" horiz-adv-x="542" d="M49 979v98l189 191q55 55 80.5 93.5t25.5 86.5q0 84 -106 84q-28 0 -72.5 -5t-74.5 -11l-30 -5l-6 101q117 24 203 24q101 0 150 -44t49 -136q0 -68 -31 -120.5t-98 -116.5l-135 -140h274v-100h-418z" />
<glyph unicode="&#xb3;" horiz-adv-x="542" d="M55 981l6 96q115 -16 209 -16q56 0 83.5 25.5t27.5 70.5q0 100 -105 100h-133v97h131q33 0 62 31t29 73q0 39 -24.5 58.5t-80.5 19.5q-39 0 -86.5 -4t-75.5 -8l-28 -4l-7 96q115 20 205 20q107 0 158 -40.5t51 -127.5q0 -102 -88 -155q56 -17 81.5 -49t25.5 -109 q0 -99 -55.5 -148t-159.5 -49q-44 0 -100.5 6t-90.5 12z" />
<glyph unicode="&#xb4;" horiz-adv-x="1169" d="M276 1327l426 195l48 -113l-431 -182z" />
<glyph unicode="&#xb6;" d="M16 1061q0 164 108.5 268.5t272.5 104.5h674v-105h-176v-1329h-113v1329h-258v-1329h-112v694h-15q-165 0 -273 102t-108 265z" />
<glyph unicode="&#xb7;" horiz-adv-x="507" d="M174 520v207h135v-207h-135z" />
<glyph unicode="&#xb8;" horiz-adv-x="1705" d="M795 -416l4 84q84 -8 145 -8q92 0 92 84q0 76 -92 76h-96v182h78v-108q120 0 171.5 -32t51.5 -122q0 -85 -48.5 -126.5t-133.5 -41.5q-40 0 -83 3t-66 6z" />
<glyph unicode="&#xb9;" horiz-adv-x="542" d="M68 1477l206 141h105v-639h-111v518l-149 -102z" />
<glyph unicode="&#xba;" d="M266 1069q0 149 62.5 218t185.5 69q124 0 186 -69t62 -218q0 -293 -248 -293t-248 293zM365 1069q0 -109 35 -156t114 -47q82 0 116 46.5t34 156.5q0 108 -35 152.5t-115 44.5q-79 0 -114 -45t-35 -152z" />
<glyph unicode="&#xbb;" horiz-adv-x="1046" d="M123 164v133l262 223l-262 201v129l371 -283v-104zM573 164v133l265 223l-265 201v129l371 -283v-104z" />
<glyph unicode="&#xbf;" horiz-adv-x="790" d="M33 -86q0 56 20.5 111t53 100.5t72 89.5t79 85t72 80.5t53 82.5t20.5 84v78h125q4 -85 4 -95q0 -66 -38 -134.5t-92 -126t-108 -113.5t-92 -117t-38 -117q0 -128 63 -178.5t217 -50.5q44 0 121 11.5t132 23.5l55 12l16 -113q-217 -57 -332 -57q-208 0 -305.5 78.5 t-97.5 265.5zM399 819v203h136v-203h-136z" />
<glyph unicode="&#xc0;" horiz-adv-x="1236" d="M74 0l409 1427h277l405 -1427h-127l-120 391h-603l-114 -391h-127zM346 508h545l-229 807h-87zM358 1792l48 113l425 -195l-43 -98z" />
<glyph unicode="&#xc1;" horiz-adv-x="1236" d="M74 0l409 1427h277l405 -1427h-127l-120 391h-603l-114 -391h-127zM346 508h545l-229 807h-87zM389 1716l426 195l47 -113l-430 -182z" />
<glyph unicode="&#xc2;" horiz-adv-x="1236" d="M74 0l409 1427h277l405 -1427h-127l-120 391h-603l-114 -391h-127zM289 1636l274 269h109l272 -269h-145l-181 170l-180 -170h-149zM346 508h545l-229 807h-87z" />
<glyph unicode="&#xc3;" horiz-adv-x="1236" d="M74 0l409 1427h277l405 -1427h-127l-120 391h-603l-114 -391h-127zM272 1772q13 13 34.5 32.5t73.5 52.5t87 33q41 0 110 -29.5t132 -59t88 -29.5q18 0 56 24.5t67 49.5l28 24l33 -94q-12 -13 -32 -32.5t-68.5 -52t-81.5 -32.5q-40 0 -109 30.5t-132.5 60.5t-90.5 30 q-21 0 -62 -26t-71 -52l-31 -27zM346 508h545l-229 807h-87z" />
<glyph unicode="&#xc4;" horiz-adv-x="1236" d="M74 0l409 1427h277l405 -1427h-127l-120 391h-603l-114 -391h-127zM346 508h545l-229 807h-87zM352 1694v161h119v-161h-119zM766 1694v161h119v-161h-119z" />
<glyph unicode="&#xc5;" horiz-adv-x="1236" d="M74 0l393 1374q-74 55 -74 162q0 95 62.5 150t162.5 55q101 0 164.5 -55t63.5 -150q0 -101 -72 -160l391 -1376h-127l-120 391h-603l-114 -391h-127zM346 508h545l-229 807h-87zM498 1536q0 -44 22 -72.5t62 -36.5h73q41 7 63.5 36t22.5 73q0 54 -32 82.5t-91 28.5 q-57 0 -88.5 -28.5t-31.5 -82.5z" />
<glyph unicode="&#xc6;" horiz-adv-x="1716" d="M45 0l410 1427h1134v-116h-706v-527h583v-114h-583v-553h706v-117h-831v391h-469l-117 -391h-127zM317 508h441v803h-211z" />
<glyph unicode="&#xc7;" horiz-adv-x="1099" d="M119 709q0 102 6 184t21 160.5t40 137t63.5 108.5t91 82t124 49.5t160.5 17.5q82 0 176 -10t147 -20l53 -11l-8 -115q-211 37 -358 37q-100 0 -170 -29t-111.5 -77.5t-65 -131t-31 -169.5t-7.5 -213q0 -103 5.5 -177.5t20 -148t41.5 -122t69 -87t105 -56.5t146 -18 q57 0 146 9t149 17l61 9l6 -115q-196 -36 -350 -40v-86q120 0 171.5 -32t51.5 -122q0 -85 -48.5 -126.5t-133.5 -41.5q-40 0 -83 3t-66 6l-23 3l4 84q85 -8 146 -8q92 0 92 84q0 76 -92 76h-97v162q-110 7 -190 44t-130 97t-80 152t-41 194.5t-11 239.5z" />
<glyph unicode="&#xc8;" horiz-adv-x="1161" d="M205 0v1427h831v-116h-706v-527h583v-114h-583v-553h706v-117h-831zM369 1792l47 113l426 -195l-43 -98z" />
<glyph unicode="&#xc9;" horiz-adv-x="1161" d="M205 0v1427h831v-116h-706v-527h583v-114h-583v-553h706v-117h-831zM420 1716l426 195l47 -113l-430 -182z" />
<glyph unicode="&#xca;" horiz-adv-x="1161" d="M205 0v1427h831v-116h-706v-527h583v-114h-583v-553h706v-117h-831zM295 1638l274 269h109l272 -269h-145l-180 170l-181 -170h-149z" />
<glyph unicode="&#xcb;" horiz-adv-x="1161" d="M205 0v1427h831v-116h-706v-527h583v-114h-583v-553h706v-117h-831zM375 1694v161h119v-161h-119zM788 1694v161h119v-161h-119z" />
<glyph unicode="&#xcc;" horiz-adv-x="489" d="M-12 1792l47 113l426 -195l-43 -98zM182 0v1427h125v-1427h-125z" />
<glyph unicode="&#xcd;" horiz-adv-x="489" d="M23 1716l426 195l47 -113l-430 -182zM182 0v1427h125v-1427h-125z" />
<glyph unicode="&#xce;" horiz-adv-x="489" d="M-84 1638l274 269h109l272 -269h-145l-180 170l-180 -170h-150zM182 0v1427h125v-1427h-125z" />
<glyph unicode="&#xcf;" horiz-adv-x="489" d="M-6 1700v162h119v-162h-119zM182 0v1427h125v-1427h-125zM408 1700v162h118v-162h-118z" />
<glyph unicode="&#xd0;" horiz-adv-x="1323" d="M47 655v119h158v653h497q81 0 149 -19t119.5 -53t91.5 -83t67 -107.5t44.5 -129t25 -144.5t7.5 -156q0 -118 -14.5 -221t-51 -199.5t-92.5 -164.5t-144.5 -109t-201.5 -41h-497v655h-158zM330 117h372q85 0 151 37t107 97t67.5 143t37 166t10.5 175q0 91 -10.5 170.5 t-37 155.5t-67.5 130t-107 87t-151 33h-372v-537h327v-119h-327v-538z" />
<glyph unicode="&#xd1;" horiz-adv-x="1413" d="M205 0v1427h246l585 -1302h47v1302h127v-1427h-243l-592 1303h-45v-1303h-125zM362 1767q13 13 34.5 33t73.5 53t87 33q41 0 110 -30t132 -59.5t88 -29.5q18 0 56 24.5t67 49.5l28 25l33 -94q-12 -13 -32 -32.5t-68.5 -52t-81.5 -32.5q-40 0 -109 30.5t-132.5 60.5 t-90.5 30q-21 0 -62 -26t-71 -52l-31 -27z" />
<glyph unicode="&#xd2;" horiz-adv-x="1337" d="M123 707q0 376 126 558.5t419 182.5q150 0 255 -46.5t169 -142t93 -230.5t29 -322q0 -194 -28 -328t-92.5 -225t-169 -132.5t-256.5 -41.5q-151 0 -256 44t-169 137t-92 225.5t-28 320.5zM254 707q0 -325 91 -468t323 -143q235 0 325 139t90 472q0 322 -94 473t-321 151 q-228 0 -321 -150t-93 -474zM430 1792l47 113l426 -195l-43 -98z" />
<glyph unicode="&#xd3;" horiz-adv-x="1337" d="M123 707q0 376 126 558.5t419 182.5q150 0 255 -46.5t169 -142t93 -230.5t29 -322q0 -194 -28 -328t-92.5 -225t-169 -132.5t-256.5 -41.5q-151 0 -256 44t-169 137t-92 225.5t-28 320.5zM254 707q0 -325 91 -468t323 -143q235 0 325 139t90 472q0 322 -94 473t-321 151 q-228 0 -321 -150t-93 -474zM424 1716l426 195l47 -113l-430 -182z" />
<glyph unicode="&#xd4;" horiz-adv-x="1337" d="M123 707q0 376 126 558.5t419 182.5q150 0 255 -46.5t169 -142t93 -230.5t29 -322q0 -194 -28 -328t-92.5 -225t-169 -132.5t-256.5 -41.5q-151 0 -256 44t-169 137t-92 225.5t-28 320.5zM254 707q0 -325 91 -468t323 -143q235 0 325 139t90 472q0 322 -94 473t-321 151 q-228 0 -321 -150t-93 -474zM344 1645l274 268h109l272 -268h-145l-180 170l-180 -170h-150z" />
<glyph unicode="&#xd5;" horiz-adv-x="1337" d="M123 707q0 376 126 558.5t419 182.5q150 0 255 -46.5t169 -142t93 -230.5t29 -322q0 -194 -28 -328t-92.5 -225t-169 -132.5t-256.5 -41.5q-151 0 -256 44t-169 137t-92 225.5t-28 320.5zM254 707q0 -325 91 -468t323 -143q235 0 325 139t90 472q0 322 -94 473t-321 151 q-228 0 -321 -150t-93 -474zM324 1767q13 13 34.5 33t73 53t86.5 33q41 0 110 -30t132 -59.5t88 -29.5q18 0 56 24.5t66 49.5l29 25l33 -94q-12 -13 -32 -32.5t-68.5 -52t-81.5 -32.5q-50 0 -176 60.5t-156 60.5q-21 0 -62 -26t-72 -52l-30 -27z" />
<glyph unicode="&#xd6;" horiz-adv-x="1337" d="M123 707q0 376 126 558.5t419 182.5q150 0 255 -46.5t169 -142t93 -230.5t29 -322q0 -194 -28 -328t-92.5 -225t-169 -132.5t-256.5 -41.5q-151 0 -256 44t-169 137t-92 225.5t-28 320.5zM254 707q0 -325 91 -468t323 -143q235 0 325 139t90 472q0 322 -94 473t-321 151 q-228 0 -321 -150t-93 -474zM418 1694v161h119v-161h-119zM831 1694v161h119v-161h-119z" />
<glyph unicode="&#xd7;" d="M168 272l299 297l-297 297l92 92l291 -296l303 296l86 -86l-297 -303l297 -290l-92 -93l-297 297l-297 -299z" />
<glyph unicode="&#xd8;" horiz-adv-x="1343" d="M123 707q0 376 126 558.5t419 182.5q162 0 272 -55l111 235l92 -37l-119 -256q190 -167 190 -628q0 -194 -28 -328t-92.5 -225t-169 -132.5t-256.5 -41.5q-149 0 -258 45l-121 -258l-92 40l125 269q-105 83 -152 238t-47 393zM254 707q0 -192 29 -316t96 -194l508 1083 q-88 51 -219 51q-228 0 -321 -150t-93 -474zM461 135q79 -39 207 -39q235 0 325 139t90 472q0 365 -118 505z" />
<glyph unicode="&#xd9;" horiz-adv-x="1316" d="M176 418v1009h125v-1009q0 -161 90 -239.5t260 -78.5q365 0 365 318v1009h125v-1009q0 -222 -123 -329t-367 -107q-475 0 -475 436zM416 1792l47 113l426 -195l-43 -98z" />
<glyph unicode="&#xda;" horiz-adv-x="1316" d="M176 418v1009h125v-1009q0 -161 90 -239.5t260 -78.5q365 0 365 318v1009h125v-1009q0 -222 -123 -329t-367 -107q-475 0 -475 436zM416 1716l426 195l47 -113l-430 -182z" />
<glyph unicode="&#xdb;" horiz-adv-x="1316" d="M176 418v1009h125v-1009q0 -161 90 -239.5t260 -78.5q365 0 365 318v1009h125v-1009q0 -222 -123 -329t-367 -107q-475 0 -475 436zM332 1636l274 269h109l272 -269h-145l-180 170l-181 -170h-149z" />
<glyph unicode="&#xdc;" horiz-adv-x="1316" d="M176 418v1009h125v-1009q0 -161 90 -239.5t260 -78.5q365 0 365 318v1009h125v-1009q0 -222 -123 -329t-367 -107q-475 0 -475 436zM408 1700v162h118v-162h-118zM821 1700v162h119v-162h-119z" />
<glyph unicode="&#xdd;" horiz-adv-x="1122" d="M53 1427h142l368 -677l363 677h141l-442 -815v-612h-125v612zM340 1716l426 195l47 -113l-430 -182z" />
<glyph unicode="&#xde;" horiz-adv-x="1247" d="M205 0v1427h125v-237h372q443 0 443 -449q0 -226 -110.5 -354.5t-332.5 -128.5h-372v-258h-125zM330 379h372q159 0 236.5 98t77.5 264q0 330 -314 330h-372v-692z" />
<glyph unicode="&#xdf;" horiz-adv-x="1226" d="M188 0v1128q0 206 90.5 288.5t294.5 82.5q207 0 293 -66.5t86 -220.5q0 -103 -37 -159t-116 -97q-75 -39 -102 -64.5t-27 -64.5q0 -33 31 -63t145 -86q82 -41 125 -67.5t78.5 -61.5t48 -74.5t12.5 -97.5q0 -218 -90.5 -306.5t-302.5 -88.5q-27 0 -86.5 4t-105.5 8l-46 4 l8 106q189 -8 224 -8q153 0 211.5 61.5t58.5 215.5q0 69 -45.5 110.5t-181.5 106.5q-128 60 -170.5 108.5t-42.5 126.5q0 76 36 116.5t128 86.5q65 32 91.5 70.5t26.5 107.5q0 99 -55.5 138.5t-194.5 39.5q-70 0 -115.5 -11.5t-80 -41.5t-49.5 -84.5t-15 -138.5v-1108h-125z " />
<glyph unicode="&#xe0;" horiz-adv-x="1093" d="M123 289q0 272 305 303l322 31v94q0 110 -48 160.5t-145 50.5q-71 0 -165.5 -7t-153.5 -15l-58 -7l-6 107q227 36 387 36q159 0 235 -79.5t76 -247.5v-535q17 -44 49.5 -65t86.5 -27l-9 -106q-150 0 -225 81q-19 -9 -53.5 -23t-131 -37t-183.5 -23q-124 0 -203.5 85.5 t-79.5 223.5zM248 291q0 -87 48 -146t122 -59q77 0 160 17.5t128 34.5l44 18v366l-308 -26q-98 -9 -146 -63.5t-48 -141.5zM276 1409l48 113l426 -195l-43 -100z" />
<glyph unicode="&#xe1;" horiz-adv-x="1093" d="M123 289q0 272 305 303l322 31v94q0 110 -48 160.5t-145 50.5q-71 0 -165.5 -7t-153.5 -15l-58 -7l-6 107q227 36 387 36q159 0 235 -79.5t76 -247.5v-535q17 -44 49.5 -65t86.5 -27l-9 -106q-150 0 -225 81q-19 -9 -53.5 -23t-131 -37t-183.5 -23q-124 0 -203.5 85.5 t-79.5 223.5zM248 291q0 -87 48 -146t122 -59q77 0 160 17.5t128 34.5l44 18v366l-308 -26q-98 -9 -146 -63.5t-48 -141.5zM326 1327l426 195l47 -113l-430 -182z" />
<glyph unicode="&#xe2;" horiz-adv-x="1093" d="M123 289q0 272 305 303l322 31v94q0 110 -48 160.5t-145 50.5q-71 0 -165.5 -7t-153.5 -15l-58 -7l-6 107q227 36 387 36q159 0 235 -79.5t76 -247.5v-535q17 -44 49.5 -65t86.5 -27l-9 -106q-150 0 -225 81q-19 -9 -53.5 -23t-131 -37t-183.5 -23q-124 0 -203.5 85.5 t-79.5 223.5zM203 1219l252 290h98l256 -290h-139l-164 184l-164 -184h-139zM248 291q0 -87 48 -146t122 -59q77 0 160 17.5t128 34.5l44 18v366l-308 -26q-98 -9 -146 -63.5t-48 -141.5z" />
<glyph unicode="&#xe3;" horiz-adv-x="1093" d="M123 289q0 272 305 303l322 31v94q0 110 -48 160.5t-145 50.5q-71 0 -165.5 -7t-153.5 -15l-58 -7l-6 107q227 36 387 36q159 0 235 -79.5t76 -247.5v-535q17 -44 49.5 -65t86.5 -27l-9 -106q-150 0 -225 81q-19 -9 -53.5 -23t-131 -37t-183.5 -23q-124 0 -203.5 85.5 t-79.5 223.5zM184 1378q12 12 31 29.5t67 46.5t83 29q50 0 161.5 -51.5t139.5 -51.5q18 0 52.5 20.5t59.5 41.5l25 20l28 -96q-10 -11 -27.5 -27.5t-61 -43.5t-76.5 -27q-47 0 -160.5 52t-143.5 52q-21 0 -57.5 -22.5t-62.5 -45.5l-27 -22zM248 291q0 -87 48 -146t122 -59 q77 0 160 17.5t128 34.5l44 18v366l-308 -26q-98 -9 -146 -63.5t-48 -141.5z" />
<glyph unicode="&#xe4;" horiz-adv-x="1093" d="M123 289q0 272 305 303l322 31v94q0 110 -48 160.5t-145 50.5q-71 0 -165.5 -7t-153.5 -15l-58 -7l-6 107q227 36 387 36q159 0 235 -79.5t76 -247.5v-535q17 -44 49.5 -65t86.5 -27l-9 -106q-150 0 -225 81q-19 -9 -53.5 -23t-131 -37t-183.5 -23q-124 0 -203.5 85.5 t-79.5 223.5zM248 291q0 -87 48 -146t122 -59q77 0 160 17.5t128 34.5l44 18v366l-308 -26q-98 -9 -146 -63.5t-48 -141.5zM276 1290v162h119v-162h-119zM678 1290v162h119v-162h-119z" />
<glyph unicode="&#xe5;" horiz-adv-x="1093" d="M123 289q0 272 305 303l322 31v94q0 110 -48 160.5t-145 50.5q-71 0 -165.5 -7t-153.5 -15l-58 -7l-6 107q227 36 387 36q159 0 235 -79.5t76 -247.5v-535q17 -44 49.5 -65t86.5 -27l-9 -106q-150 0 -225 81q-19 -9 -53.5 -23t-131 -37t-183.5 -23q-124 0 -203.5 85.5 t-79.5 223.5zM248 291q0 -87 48 -146t122 -59q77 0 160 17.5t128 34.5l44 18v366l-308 -26q-98 -9 -146 -63.5t-48 -141.5zM317 1366q0 87 60 146t149 59q86 0 144.5 -59.5t58.5 -145.5q0 -88 -58.5 -147.5t-144.5 -59.5q-89 0 -149 59.5t-60 147.5zM416 1366 q0 -48 31.5 -81.5t78.5 -33.5q46 0 77.5 34t31.5 81q0 46 -32 79.5t-77 33.5q-47 0 -78.5 -33.5t-31.5 -79.5z" />
<glyph unicode="&#xe6;" horiz-adv-x="1695" d="M117 289q0 84 20.5 138.5t69.5 88t111.5 50.5t164.5 30l277 27v94q0 110 -49.5 160.5t-145.5 50.5q-68 0 -164.5 -5t-159.5 -11l-63 -5l-6 109q235 26 395 26q224 0 281 -168q98 168 332 168q199 0 298 -117t99 -366l-4 -98h-690q0 -187 64 -279t218 -92q64 0 156.5 5 t153.5 9l61 5l4 -101q-219 -28 -383 -28q-207 0 -301 114l-70 -31q-187 -83 -395 -83q-129 0 -201.5 79.5t-72.5 229.5zM242 291q0 -98 44.5 -151.5t119.5 -53.5q165 0 397 86q-47 112 -47 348l-326 -28q-97 -9 -142.5 -57.5t-45.5 -143.5zM881 561h573q0 200 -66 287.5 t-210 87.5q-294 0 -297 -375z" />
<glyph unicode="&#xe7;" horiz-adv-x="894" d="M127 530q0 268 99 390t323 122q44 0 106 -5.5t102 -10.5l40 -6l-6 -109q-146 21 -224 21q-174 0 -243.5 -94.5t-69.5 -307.5q0 -94 8 -160t28 -121.5t55.5 -88.5t90.5 -50.5t133 -17.5q35 0 91.5 4t95.5 8l39 5l4 -107q-156 -22 -252 -22h-4v-86q120 0 171.5 -32 t51.5 -122q0 -85 -48.5 -126.5t-133.5 -41.5q-40 0 -83 3t-66 6l-23 3l4 84q84 -8 145 -8q92 0 92 84q0 76 -92 76h-96v164q-191 20 -264.5 147t-73.5 399z" />
<glyph unicode="&#xe8;" horiz-adv-x="1038" d="M119 508q0 271 109 402.5t304 131.5q394 0 394 -483l-4 -98h-678q1 -82 14.5 -146t44 -116.5t85.5 -80.5t132 -28q64 0 155.5 5t150.5 9l59 5l4 -101q-211 -28 -375 -28q-108 0 -185.5 36.5t-123 107.5t-66 165t-20.5 219zM244 561h559q0 198 -67 286.5t-204 88.5 q-134 0 -211 -91.5t-77 -283.5zM272 1409l47 113l426 -195l-43 -100z" />
<glyph unicode="&#xe9;" horiz-adv-x="1038" d="M119 508q0 271 109 402.5t304 131.5q394 0 394 -483l-4 -98h-678q1 -82 14.5 -146t44 -116.5t85.5 -80.5t132 -28q64 0 155.5 5t150.5 9l59 5l4 -101q-211 -28 -375 -28q-108 0 -185.5 36.5t-123 107.5t-66 165t-20.5 219zM244 561h559q0 198 -67 286.5t-204 88.5 q-134 0 -211 -91.5t-77 -283.5zM293 1327l426 195l47 -113l-430 -182z" />
<glyph unicode="&#xea;" horiz-adv-x="1038" d="M119 508q0 271 109 402.5t304 131.5q394 0 394 -483l-4 -98h-678q1 -82 14.5 -146t44 -116.5t85.5 -80.5t132 -28q64 0 155.5 5t150.5 9l59 5l4 -101q-211 -28 -375 -28q-108 0 -185.5 36.5t-123 107.5t-66 165t-20.5 219zM225 1219l252 290h98l256 -290h-139l-164 184 l-163 -184h-140zM244 561h559q0 198 -67 286.5t-204 88.5q-134 0 -211 -91.5t-77 -283.5z" />
<glyph unicode="&#xeb;" horiz-adv-x="1038" d="M119 508q0 271 109 402.5t304 131.5q394 0 394 -483l-4 -98h-678q1 -82 14.5 -146t44 -116.5t85.5 -80.5t132 -28q64 0 155.5 5t150.5 9l59 5l4 -101q-211 -28 -375 -28q-108 0 -185.5 36.5t-123 107.5t-66 165t-20.5 219zM244 561h559q0 198 -67 286.5t-204 88.5 q-134 0 -211 -91.5t-77 -283.5zM287 1290v162h119v-162h-119zM688 1290v162h119v-162h-119z" />
<glyph unicode="&#xec;" horiz-adv-x="538" d="M-41 1409l47 113l426 -195l-43 -100zM207 0v1024h123v-1024h-123z" />
<glyph unicode="&#xed;" horiz-adv-x="534" d="M86 1327l426 195l47 -113l-430 -182zM207 0v1024h123v-1024h-123z" />
<glyph unicode="&#xee;" horiz-adv-x="538" d="M-37 1219l252 290h98l256 -290h-139l-164 184l-164 -184h-139zM207 0v1024h123v-1024h-123z" />
<glyph unicode="&#xef;" horiz-adv-x="538" d="M35 1290v162h119v-162h-119zM207 0v1024h123v-1024h-123zM436 1290v162h119v-162h-119z" />
<glyph unicode="&#xf0;" d="M90 449q0 194 116 311t310 117q69 0 158 -20t144 -40l54 -20q-13 288 -319 458l-231 -161l-58 80l189 131q-110 47 -248 84l31 104q197 -50 325 -111l205 144l57 -80l-166 -117q344 -206 344 -606q0 -272 -47.5 -433.5t-147 -234.5t-265.5 -73q-214 0 -332.5 121.5 t-118.5 345.5zM219 449q0 -169 82.5 -261t239.5 -92q122 0 192.5 55t104 182.5t34.5 350.5q-23 9 -60.5 22.5t-131 35.5t-158.5 22q-140 0 -221.5 -88t-81.5 -227z" />
<glyph unicode="&#xf1;" horiz-adv-x="1175" d="M211 0v1024h123v-74q18 10 48 25.5t113 41t152 25.5q103 0 169.5 -28t104 -93t52 -156t14.5 -233v-532h-123v530q0 90 -5 149.5t-19 111.5t-40 80.5t-66.5 44.5t-100.5 16q-68 0 -143 -21.5t-116 -42.5l-40 -22v-846h-123zM283 1378q11 12 30.5 29.5t67 46.5t82.5 29 q50 0 161.5 -51.5t139.5 -51.5q18 0 52.5 20.5t59.5 41.5l25 20l29 -96q-10 -11 -27.5 -27.5t-61.5 -43.5t-77 -27q-47 0 -160 52t-143 52q-21 0 -58 -22.5t-63 -45.5l-27 -22z" />
<glyph unicode="&#xf2;" horiz-adv-x="1093" d="M121 528q0 265 95.5 389.5t326.5 124.5q218 0 316.5 -128t98.5 -388q0 -108 -11.5 -190t-40 -151t-75.5 -113t-119 -68t-169 -24q-123 0 -205 33t-130 104t-67.5 169.5t-19.5 241.5zM242 1409l47 113l426 -195l-43 -100zM246 528q0 -93 7 -158.5t26 -121.5t52 -89.5 t85.5 -52t126.5 -18.5q73 0 125 20.5t83.5 54.5t49.5 92t24 120t6 151q0 209 -67 308.5t-221 99.5q-164 0 -230.5 -94t-66.5 -312z" />
<glyph unicode="&#xf3;" horiz-adv-x="1093" d="M121 528q0 265 95.5 389.5t326.5 124.5q218 0 316.5 -128t98.5 -388q0 -108 -11.5 -190t-40 -151t-75.5 -113t-119 -68t-169 -24q-123 0 -205 33t-130 104t-67.5 169.5t-19.5 241.5zM246 528q0 -93 7 -158.5t26 -121.5t52 -89.5t85.5 -52t126.5 -18.5q73 0 125 20.5 t83.5 54.5t49.5 92t24 120t6 151q0 209 -67 308.5t-221 99.5q-164 0 -230.5 -94t-66.5 -312zM324 1327l426 195l47 -113l-430 -182z" />
<glyph unicode="&#xf4;" horiz-adv-x="1093" d="M121 528q0 265 95.5 389.5t326.5 124.5q218 0 316.5 -128t98.5 -388q0 -108 -11.5 -190t-40 -151t-75.5 -113t-119 -68t-169 -24q-123 0 -205 33t-130 104t-67.5 169.5t-19.5 241.5zM223 1219l252 290h98l256 -290h-139l-164 184l-164 -184h-139zM246 528q0 -93 7 -158.5 t26 -121.5t52 -89.5t85.5 -52t126.5 -18.5q73 0 125 20.5t83.5 54.5t49.5 92t24 120t6 151q0 209 -67 308.5t-221 99.5q-164 0 -230.5 -94t-66.5 -312z" />
<glyph unicode="&#xf5;" horiz-adv-x="1093" d="M121 528q0 265 95.5 389.5t326.5 124.5q218 0 316.5 -128t98.5 -388q0 -108 -11.5 -190t-40 -151t-75.5 -113t-119 -68t-169 -24q-123 0 -205 33t-130 104t-67.5 169.5t-19.5 241.5zM199 1378q11 12 30.5 29.5t67 46.5t82.5 29q50 0 161.5 -51.5t139.5 -51.5 q18 0 52.5 20.5t59.5 41.5l25 20l29 -96q-10 -11 -27.5 -27.5t-61.5 -43.5t-77 -27q-47 0 -160 52t-143 52q-21 0 -58 -22.5t-63 -45.5l-27 -22zM246 528q0 -93 7 -158.5t26 -121.5t52 -89.5t85.5 -52t126.5 -18.5q73 0 125 20.5t83.5 54.5t49.5 92t24 120t6 151 q0 209 -67 308.5t-221 99.5q-164 0 -230.5 -94t-66.5 -312z" />
<glyph unicode="&#xf6;" horiz-adv-x="1093" d="M121 528q0 265 95.5 389.5t326.5 124.5q218 0 316.5 -128t98.5 -388q0 -108 -11.5 -190t-40 -151t-75.5 -113t-119 -68t-169 -24q-123 0 -205 33t-130 104t-67.5 169.5t-19.5 241.5zM246 528q0 -93 7 -158.5t26 -121.5t52 -89.5t85.5 -52t126.5 -18.5q73 0 125 20.5 t83.5 54.5t49.5 92t24 120t6 151q0 209 -67 308.5t-221 99.5q-164 0 -230.5 -94t-66.5 -312zM295 1290v162h119v-162h-119zM696 1290v162h119v-162h-119z" />
<glyph unicode="&#xf7;" d="M123 543v125h838v-125h-838zM477 150v190h129v-190h-129zM477 866v191h129v-191h-129z" />
<glyph unicode="&#xf8;" horiz-adv-x="1079" d="M121 528q0 265 95.5 389.5t326.5 124.5q84 0 155 -22l-6 -16l-10 -29l-25 -60q-52 19 -114 19q-164 0 -230.5 -94t-66.5 -312q0 -150 21.5 -242.5t78.5 -140.5l-27 -65l-16 -27l-8 -18q-95 56 -134.5 176.5t-39.5 316.5zM199 -201l96 236q36 -23 86 -35l-94 -231z M346 145l311 770q33 -11 76 -45l-313 -766q-41 11 -74 41zM381 0l10 25l8 26l21 53q47 -16 123 -16q73 0 125 20.5t83.5 54.5t49.5 92t24 120t6 151q0 249 -98 344l31 74l14 27l4 12q176 -112 176 -457q0 -108 -11.5 -190t-40 -151t-75.5 -113t-119 -68t-169 -24 q-98 0 -162 20zM698 1020l90 219l89 -31l-95 -225q-40 26 -84 37z" />
<glyph unicode="&#xf9;" horiz-adv-x="1142" d="M190 489v535h123v-530q0 -94 5.5 -155.5t19.5 -112.5t40.5 -79t67 -42.5t99.5 -14.5q62 0 132.5 21.5t110.5 42.5l39 22v848h123v-1024h-123v72q-18 -10 -47.5 -25.5t-108 -41t-141.5 -25.5q-82 0 -140 18t-97 54t-61.5 99t-32 143t-9.5 195zM268 1409l47 113l426 -195 l-43 -100z" />
<glyph unicode="&#xfa;" horiz-adv-x="1142" d="M190 489v535h123v-530q0 -94 5.5 -155.5t19.5 -112.5t40.5 -79t67 -42.5t99.5 -14.5q62 0 132.5 21.5t110.5 42.5l39 22v848h123v-1024h-123v72q-18 -10 -47.5 -25.5t-108 -41t-141.5 -25.5q-82 0 -140 18t-97 54t-61.5 99t-32 143t-9.5 195zM350 1327l426 195l47 -113 l-430 -182z" />
<glyph unicode="&#xfb;" horiz-adv-x="1142" d="M190 489v535h123v-530q0 -94 5.5 -155.5t19.5 -112.5t40.5 -79t67 -42.5t99.5 -14.5q62 0 132.5 21.5t110.5 42.5l39 22v848h123v-1024h-123v72q-18 -10 -47.5 -25.5t-108 -41t-141.5 -25.5q-82 0 -140 18t-97 54t-61.5 99t-32 143t-9.5 195zM250 1219l252 290h98 l256 -290h-139l-164 184l-164 -184h-139z" />
<glyph unicode="&#xfc;" horiz-adv-x="1142" d="M190 489v535h123v-530q0 -94 5.5 -155.5t19.5 -112.5t40.5 -79t67 -42.5t99.5 -14.5q62 0 132.5 21.5t110.5 42.5l39 22v848h123v-1024h-123v72q-18 -10 -47.5 -25.5t-108 -41t-141.5 -25.5q-82 0 -140 18t-97 54t-61.5 99t-32 143t-9.5 195zM322 1290v162h118v-162h-118 zM723 1290v162h119v-162h-119z" />
<glyph unicode="&#xfd;" horiz-adv-x="983" d="M53 1024h125l264 -909h74l266 909h125l-436 -1485h-125l139 461h-137zM301 1327l426 195l47 -113l-430 -182z" />
<glyph unicode="&#xfe;" horiz-adv-x="1120" d="M207 -461v1940h123v-523q16 10 43.5 24t106.5 38t149 24q366 0 366 -512q0 -286 -102.5 -418t-333.5 -132q-47 0 -104.5 4t-90.5 8l-34 4v-457h-123zM330 111q119 -23 225 -23q171 0 243 106t72 336q0 193 -63.5 297.5t-185.5 104.5q-68 0 -140.5 -20.5t-111.5 -41.5 l-39 -20v-739z" />
<glyph unicode="&#xff;" horiz-adv-x="985" d="M66 1024h124l265 -909h73l267 909h125l-437 -1485h-125l140 461h-138zM240 1290v162h118v-162h-118zM641 1290v162h119v-162h-119z" />
<glyph unicode="&#x152;" horiz-adv-x="1902" d="M115 707q0 186 27.5 320t89.5 230t166 143.5t253 47.5q143 0 301 -21h826v-116h-701v-527h578v-114h-578v-553h701v-119h-822q-225 -18 -305 -18q-123 0 -214.5 31t-153 88.5t-99 148.5t-53.5 202t-16 257zM246 709q0 -105 7.5 -185.5t25.5 -151.5t49 -120t77 -84.5 t110 -52.5t147 -17q46 0 290 17v1194q-287 20 -290 20q-97 0 -168 -25.5t-118.5 -74t-76.5 -125.5t-41 -172.5t-12 -222.5z" />
<glyph unicode="&#x153;" horiz-adv-x="1794" d="M127 528q0 273 98 393.5t332 120.5q140 0 229.5 -51t133.5 -160q95 211 356 211q201 0 300 -117t99 -366l-4 -98h-690q0 -187 64.5 -279t218.5 -92q64 0 156.5 5t153.5 9l60 5l4 -101q-219 -28 -383 -28q-252 0 -340 190q-42 -99 -126 -144.5t-232 -45.5q-103 0 -177 21 t-123 61t-77.5 108t-40.5 153t-12 205zM254 528q0 -99 6 -164t24.5 -122t52 -88t87.5 -48.5t133 -17.5q78 0 132 19t86.5 51.5t50 90.5t23 120t5.5 157q0 219 -69.5 313.5t-227.5 94.5q-175 0 -239 -88.5t-64 -317.5zM979 561h573q0 202 -64 287.5t-210 85.5 q-296 0 -299 -373z" />
<glyph unicode="&#x178;" horiz-adv-x="1122" d="M53 1427h142l368 -677l363 677h141l-442 -815v-612h-125v612zM307 1692v161h119v-161h-119zM721 1692v161h119v-161h-119z" />
<glyph unicode="&#x2c6;" horiz-adv-x="1705" d="M537 1219l251 290h99l256 -290h-139l-164 184l-164 -184h-139z" />
<glyph unicode="&#x2dc;" horiz-adv-x="909" d="M145 1378q12 12 31 29.5t67 46.5t83 29q50 0 161.5 -51.5t139.5 -51.5q18 0 52.5 20.5t59.5 41.5l25 20l29 -96q-10 -11 -27.5 -27.5t-61.5 -43.5t-77 -27q-47 0 -160 52t-143 52q-21 0 -58 -22.5t-64 -45.5l-26 -22z" />
<glyph unicode="&#x2000;" horiz-adv-x="956" />
<glyph unicode="&#x2001;" horiz-adv-x="1913" />
<glyph unicode="&#x2002;" horiz-adv-x="956" />
<glyph unicode="&#x2003;" horiz-adv-x="1913" />
<glyph unicode="&#x2004;" horiz-adv-x="637" />
<glyph unicode="&#x2005;" horiz-adv-x="478" />
<glyph unicode="&#x2006;" horiz-adv-x="318" />
<glyph unicode="&#x2007;" horiz-adv-x="318" />
<glyph unicode="&#x2008;" horiz-adv-x="239" />
<glyph unicode="&#x2009;" horiz-adv-x="382" />
<glyph unicode="&#x200a;" horiz-adv-x="106" />
<glyph unicode="&#x2010;" horiz-adv-x="901" d="M143 496v116h615v-116h-615z" />
<glyph unicode="&#x2011;" horiz-adv-x="901" d="M143 496v116h615v-116h-615z" />
<glyph unicode="&#x2012;" horiz-adv-x="901" d="M143 496v116h615v-116h-615z" />
<glyph unicode="&#x2013;" horiz-adv-x="1024" d="M0 496v114h1024v-114h-1024z" />
<glyph unicode="&#x2014;" horiz-adv-x="2048" d="M0 496v114h2048v-114h-2048z" />
<glyph unicode="&#x2018;" horiz-adv-x="374" d="M66 1067l104 434h111l-86 -434h-129z" />
<glyph unicode="&#x2019;" horiz-adv-x="374" d="M94 1067l86 434h129l-104 -434h-111z" />
<glyph unicode="&#x201a;" horiz-adv-x="374" d="M94 -176l86 434h129l-104 -434h-111z" />
<glyph unicode="&#x201c;" horiz-adv-x="761" d="M109 993l104 434h111l-86 -434h-129zM432 993l105 434h110l-86 -434h-129z" />
<glyph unicode="&#x201d;" horiz-adv-x="698" d="M109 1063l86 434h129l-105 -434h-110zM432 1063l86 434h129l-104 -434h-111z" />
<glyph unicode="&#x201e;" horiz-adv-x="698" d="M109 -176l86 434h129l-105 -434h-110zM432 -176l86 434h129l-104 -434h-111z" />
<glyph unicode="&#x2022;" d="M289 219v590h508v-590h-508z" />
<glyph unicode="&#x2026;" horiz-adv-x="1523" d="M193 0v207h135v-207h-135zM713 0v207h135v-207h-135zM1233 0v207h135v-207h-135z" />
<glyph unicode="&#x202f;" horiz-adv-x="382" />
<glyph unicode="&#x2039;" horiz-adv-x="729" d="M102 459v104l371 283v-129l-264 -203l264 -223v-131z" />
<glyph unicode="&#x203a;" horiz-adv-x="729" d="M123 164v133l262 223l-262 201v129l371 -283v-104z" />
<glyph unicode="&#x205f;" horiz-adv-x="478" />
<glyph unicode="&#x20ac;" horiz-adv-x="1118" d="M43 473v107h121q0 12 -1 45t-1 51q0 19 1 56t1 52h-121v107h129q11 126 41 214.5t88 153t150 95t223 30.5q84 0 174 -9.5t138 -18.5l48 -10l-8 -113q-190 35 -342 35q-104 0 -175.5 -23.5t-114 -73.5t-63.5 -116.5t-28 -163.5l586 -2v-105h-594q0 -15 -1 -52t-1 -56 q0 -18 1 -51t1 -45l594 -2v-105h-586q7 -98 28 -164.5t64 -116t114.5 -73t176.5 -23.5q60 0 145 8t140 16l55 9l8 -111q-198 -38 -360 -38q-132 0 -224 30t-150 94t-88 153t-40 216h-129z" />
<glyph unicode="&#x2122;" d="M14 1208v64h410v-64h-170v-528h-68v528h-172zM496 678v594h102l172 -496l178 496h103v-594h-66v528l-180 -506h-72l-172 506v-528h-65z" />
<glyph unicode="&#x25fc;" horiz-adv-x="1024" d="M0 0v1024h1024v-1024h-1024z" />
</font>
</defs>
</svg>
